<?xml version="1.0" encoding="utf-8"?>
<svg width="100%" height="100%" viewBox="0 0 354 184" version="1.1" xmlns="http://www.w3.org/2000/svg" style="fill-rule:evenodd;clip-rule:evenodd;stroke-linejoin:round;stroke-miterlimit:2;" preserveAspectRatio="xMidYMin">
  <path d="M 0 168.443 L 0 9.558 C 0 4.283 4.283 0 9.558 0 L 344.442 0 C 349.717 0 354 4.283 354 9.558 L 354 168.443 C 354 173.717 349.717 178 344.442 178 L 9.558 178 C 4.283 178 0 173.717 0 168.443 Z M 4 24.001 L 4 168.443 C 4 171.51 6.491 174 9.558 174 L 344.442 174 C 347.509 174 350 171.51 350 168.443 L 350 24.001 L 4 24.001 Z M 248 55.784 L 248 128.217 C 248 130.857 245.857 133 243.217 133 L 110.783 133 C 108.143 133 106 130.857 106 128.217 L 106 55.784 C 106 53.143 108.143 51 110.783 51 L 243.217 51 C 245.857 51 248 53.143 248 55.784 Z M 244 55.784 C 244 55.351 243.649 55 243.217 55 L 110.783 55 C 110.351 55 110 55.351 110 55.784 L 110 128.217 C 110 128.649 110.351 129.001 110.783 129.001 L 243.217 129.001 C 243.649 129.001 244 128.649 244 128.217 L 244 55.784 Z M 256 51.303 L 256 51 L 312.501 51 C 314.432 51 316 52.568 316 54.501 C 316 54.501 328 79.5 328 92 C 328 104.5 316 129.5 316 129.5 C 316 131.432 314.432 133 312.501 133 L 256 133 L 256 132.698 L 256 51.303 Z M 260 73.024 L 260 110.976 C 267.093 107.604 272 100.37 272 92 C 272 83.63 267.093 76.397 260 73.024 Z M 268.673 129.001 L 312.032 129.001 C 312.086 128.574 312.208 128.158 312.394 127.77 C 312.394 127.77 324 103.938 324 92 C 324 80.062 312.394 56.231 312.394 56.231 C 312.208 55.842 312.086 55.426 312.032 55 L 268.673 55 C 282.465 61.606 292 75.699 292 92 C 292 108.302 282.465 122.395 268.673 129.001 Z M 260 115.327 L 260 127.897 C 276.078 123.875 288 109.319 288 92 C 288 74.682 276.078 60.126 260 56.104 L 260 68.672 C 269.356 72.289 276 81.374 276 92 C 276 102.626 269.356 111.711 260 115.327 Z M 98 132.698 L 98 133 L 41.499 133 C 39.568 133 38 131.432 38 129.5 C 38 129.5 26 104.5 26 92 C 26 79.5 38 54.501 38 54.501 C 38 52.568 39.568 51 41.499 51 L 98 51 L 98 51.303 L 98 132.698 Z M 94 68.673 L 94 56.104 C 77.922 60.126 66 74.682 66 92 C 66 109.319 77.922 123.875 94 127.897 L 94 115.328 C 84.644 111.711 78 102.626 78 92 C 78 81.374 84.644 72.289 94 68.673 Z M 94 110.976 L 94 73.024 C 86.907 76.397 82 83.63 82 92 C 82 100.37 86.907 107.604 94 110.976 Z M 85.327 55 L 41.968 55 C 41.914 55.426 41.792 55.842 41.606 56.231 C 41.606 56.231 30 80.062 30 92 C 30 103.938 41.606 127.77 41.606 127.77 C 41.792 128.158 41.914 128.574 41.968 129.001 L 85.327 129.001 C 71.535 122.395 62 108.302 62 92 C 62 75.699 71.535 61.606 85.327 55 Z M 350 20 L 350 9.558 C 350 6.491 347.509 4 344.442 4 L 9.558 4 C 6.491 4 4 6.491 4 9.558 L 4 20 L 350 20 Z" style="fill:white;"/>
</svg>